<svg xmlns="http://www.w3.org/2000/svg" viewBox="0 0 32 32" width="32" height="32">
  <!-- Space Invader - classic pixelated design (larger) -->
  <!-- Row 1 -->
  <rect x="8" y="4" width="2" height="2" fill="#000000"/>
  <rect x="22" y="4" width="2" height="2" fill="#000000"/>
  
  <!-- Row 2 -->
  <rect x="9" y="6" width="2" height="2" fill="#000000"/>
  <rect x="21" y="6" width="2" height="2" fill="#000000"/>
  
  <!-- Row 3 -->
  <rect x="6" y="8" width="20" height="2" fill="#000000"/>
  
  <!-- Row 4 -->
  <rect x="4" y="10" width="6" height="2" fill="#000000"/>
  <rect x="11" y="10" width="10" height="2" fill="#000000"/>
  <rect x="22" y="10" width="6" height="2" fill="#000000"/>
  
  <!-- Row 5 -->
  <rect x="2" y="12" width="28" height="2" fill="#000000"/>
  
  <!-- Row 6 -->
  <rect x="4" y="14" width="2" height="2" fill="#000000"/>
  <rect x="8" y="14" width="16" height="2" fill="#000000"/>
  <rect x="26" y="14" width="2" height="2" fill="#000000"/>
  
  <!-- Row 7 -->
  <rect x="4" y="16" width="2" height="2" fill="#000000"/>
  <rect x="10" y="16" width="3" height="2" fill="#000000"/>
  <rect x="19" y="16" width="3" height="2" fill="#000000"/>
  <rect x="26" y="16" width="2" height="2" fill="#000000"/>
  
  <!-- Row 8 -->
  <rect x="6" y="18" width="6" height="2" fill="#000000"/>
  <rect x="20" y="18" width="6" height="2" fill="#000000"/>
  
  <!-- Row 9 (tentacles) -->
  <rect x="2" y="20" width="3" height="2" fill="#000000"/>
  <rect x="7" y="20" width="3" height="2" fill="#000000"/>
  <rect x="22" y="20" width="3" height="2" fill="#000000"/>
  <rect x="27" y="20" width="3" height="2" fill="#000000"/>
  
  <!-- Row 10 (tentacle tips) -->
  <rect x="4" y="22" width="3" height="2" fill="#000000"/>
  <rect x="25" y="22" width="3" height="2" fill="#000000"/>
  
  <!-- Row 11 (extended tentacles) -->
  <rect x="6" y="24" width="2" height="2" fill="#000000"/>
  <rect x="24" y="24" width="2" height="2" fill="#000000"/>
</svg>