<svg xmlns="http://www.w3.org/2000/svg" viewBox="0 0 32 32" width="32" height="32">
  <!-- White background -->
  <rect width="32" height="32" fill="#ffffff"/>
  
  <!-- Space Invader - classic pixelated design -->
  <!-- Row 1 -->
  <rect x="10" y="6" width="2" height="2" fill="#000000"/>
  <rect x="20" y="6" width="2" height="2" fill="#000000"/>
  
  <!-- Row 2 -->
  <rect x="11" y="8" width="2" height="2" fill="#000000"/>
  <rect x="19" y="8" width="2" height="2" fill="#000000"/>
  
  <!-- Row 3 -->
  <rect x="8" y="10" width="16" height="2" fill="#000000"/>
  
  <!-- Row 4 -->
  <rect x="6" y="12" width="4" height="2" fill="#000000"/>
  <rect x="12" y="12" width="8" height="2" fill="#000000"/>
  <rect x="22" y="12" width="4" height="2" fill="#000000"/>
  
  <!-- Row 5 -->
  <rect x="4" y="14" width="24" height="2" fill="#000000"/>
  
  <!-- Row 6 -->
  <rect x="6" y="16" width="2" height="2" fill="#000000"/>
  <rect x="10" y="16" width="12" height="2" fill="#000000"/>
  <rect x="24" y="16" width="2" height="2" fill="#000000"/>
  
  <!-- Row 7 -->
  <rect x="6" y="18" width="2" height="2" fill="#000000"/>
  <rect x="12" y="18" width="2" height="2" fill="#000000"/>
  <rect x="18" y="18" width="2" height="2" fill="#000000"/>
  <rect x="24" y="18" width="2" height="2" fill="#000000"/>
  
  <!-- Row 8 -->
  <rect x="8" y="20" width="4" height="2" fill="#000000"/>
  <rect x="20" y="20" width="4" height="2" fill="#000000"/>
  
  <!-- Row 9 (tentacles) -->
  <rect x="4" y="22" width="2" height="2" fill="#000000"/>
  <rect x="8" y="22" width="2" height="2" fill="#000000"/>
  <rect x="22" y="22" width="2" height="2" fill="#000000"/>
  <rect x="26" y="22" width="2" height="2" fill="#000000"/>
  
  <!-- Row 10 (tentacle tips) -->
  <rect x="6" y="24" width="2" height="2" fill="#000000"/>
  <rect x="24" y="24" width="2" height="2" fill="#000000"/>
</svg>